<svg xmlns="http://www.w3.org/2000/svg" width="540" viewBox="0 0 540 525"><g fill="none" fill-rule="evenodd"><path fill="#F0F0F0" fill-rule="nonzero" d="M125.187 397.963L167 331.841l-93.641-59.878L25 348.436l77.453 49.527z"/><path fill="#3F3D56" fill-rule="nonzero" d="M183 416.963H80v-20h103v20zm-101.662-1.29h100.324v-17.42H81.338v17.42z"/><circle cx="171.5" cy="407.463" r="6.5" fill="#222F65" fill-rule="nonzero"/><circle cx="151.5" cy="407.463" r="6.5" fill="#222F65" fill-rule="nonzero"/><circle cx="133.5" cy="407.463" r="6.5" fill="#222F65" fill-rule="nonzero"/><circle cx="114.5" cy="407.463" r="6.5" fill="#222F65" fill-rule="nonzero"/><circle cx="95.5" cy="407.463" r="6.5" fill="#222F65" fill-rule="nonzero"/><path fill="#F0F0F0" fill-rule="nonzero" d="M307.462 185.904v-51.075H333v-24.866H208v125h106.855v-12.222a17.348 17.348 0 0117.348-17.348H333v-19.49h-25.538z"/><path fill="#F0F0F0" d="M47.65 10.568L87.432.65l9.918 39.782-39.782 9.918z"/><path fill="#222F65" fill-rule="nonzero" d="M362 432.963h84v17h-84z"/><path fill="#F0F0F0" fill-rule="nonzero" d="M340 346.963h123v16H340z"/><path fill="#3F3D56" fill-rule="nonzero" d="M0 523.963h524v1H0z"/><path fill="#3F3D56" fill-rule="nonzero" d="M483.965 524.963h-152.93c-9.956-.011-18.024-8.076-18.035-18.027V222.99c.011-9.95 8.08-18.015 18.035-18.026h152.93c9.956.011 18.024 8.075 18.035 18.026v283.947c-.011 9.951-8.08 18.016-18.035 18.027zm-152.93-318.656c-9.213.011-16.68 7.474-16.69 16.682v283.947c.01 9.21 7.477 16.672 16.69 16.682h152.93c9.213-.01 16.68-7.473 16.69-16.682V222.99c-.01-9.208-7.477-16.671-16.69-16.682h-152.93z"/><path fill="#3F3D56" fill-rule="nonzero" d="M390 218.963a4 4 0 110-8 4 4 0 010 8zm0-6.667a2.667 2.667 0 100 5.334 2.667 2.667 0 000-5.334zm10 1.667h30v1h-30z"/><path fill="#222F65" fill-rule="nonzero" d="M491 223.963v54c-29.823-.001-53.999-24.177-54-54h54z"/><path fill="#3F3D56" fill-rule="nonzero" d="M491 506.963H325v-283h166v283zm-164.656-1.344h163.312V225.307H326.344V505.62z"/><circle cx="451.5" cy="256.463" r="18.5" fill="#000" fill-rule="nonzero" opacity=".1"/><circle cx="448.5" cy="258.463" r="18.5" fill="#222F65" fill-rule="nonzero"/><path fill="#3F3D56" fill-rule="nonzero" d="M332 234.963h26v9h-26zm14 90h26v9h-26zm125 35H347v-17h124v17zm-122.652-1.308h121.304v-14.384H348.348v14.384z"/><path fill="#F0F0F0" fill-rule="nonzero" d="M340 397.963h123v16H340z"/><path fill="#3F3D56" fill-rule="nonzero" d="M346 374.963h26v9h-26zm125 36H347v-17h124v17zm-122.652-1.308h121.304v-14.384H348.348v14.384zM451 445.963h-85v-18h85v18zm-83.65-1.286h82.3V429.25h-82.3v15.428z"/><path fill="#222F65" fill-rule="nonzero" d="M466 353.463a6.5 6.5 0 01-11.51 4.14l-.006-.006a6.5 6.5 0 015.884-10.575 6.499 6.499 0 015.445 4.905.006.006 0 00.005.002c.12.502.181 1.017.182 1.534z"/><path fill="#000" fill-rule="nonzero" d="M466 353.088c0 2.9-1.765 5.487-4.41 6.469-2.647.981-5.605.145-7.397-2.09l-.006-.007a7.24 7.24 0 01-.187-1.622c0-2.9 1.765-5.488 4.41-6.469 2.647-.981 5.605-.145 7.397 2.09 0 .002 0 .003.002.005a.006.006 0 00.004.002 7.24 7.24 0 01.187 1.622z" opacity=".1"/><circle cx="462.5" cy="356.463" r="6.5" fill="#222F65" fill-rule="nonzero"/><path fill="#222F65" fill-rule="nonzero" d="M466 403.463a6.5 6.5 0 01-11.51 4.14l-.006-.006a6.5 6.5 0 015.884-10.575 6.499 6.499 0 015.445 4.905.006.006 0 00.005.002c.12.502.181 1.017.182 1.534z"/><path fill="#000" fill-rule="nonzero" d="M466 404.088c0 2.9-1.765 5.487-4.41 6.469-2.647.981-5.605.145-7.397-2.09l-.006-.007a7.24 7.24 0 01-.187-1.622c0-2.9 1.765-5.488 4.41-6.469 2.647-.981 5.605-.145 7.397 2.09 0 .002 0 .003.002.005a.006.006 0 00.004.002 7.24 7.24 0 01.187 1.622z" opacity=".1"/><circle cx="462.5" cy="407.463" r="6.5" fill="#222F65" fill-rule="nonzero"/><path fill="#F0F0F0" fill-rule="nonzero" d="M315 141.963h35v35h-35z"/><path fill="#3F3D56" fill-rule="nonzero" d="M451 166.963a8 8 0 118-8 8.009 8.009 0 01-8 8zm0-14.667a6.667 6.667 0 106.667 6.667 6.674 6.674 0 00-6.667-6.667zM274 279.963h-17v-17h17v17zm-15.692-1.308h14.384v-14.384h-14.384v14.384zM540 410.963h-17v-17h17v17zm-15.692-1.308h14.384v-14.384h-14.384v14.384z"/><path fill="#2F2E41" fill-rule="nonzero" d="M195 293.867l2.998 1.626 10.2 5.536 16.467 8.934 9.597-17.93a14.653 14.653 0 001.13-11.1 14.541 14.541 0 00-7.005-8.647 19.108 19.108 0 00-22.427 3.064l-.005.006a19.351 19.351 0 00-3.612 4.786L195 293.867z"/><path fill="#FFB8B8" fill-rule="nonzero" d="M240 474.043l-1.93 22.88-7.243 1.04-4.827-26z"/><path fill="#2F2E41" fill-rule="nonzero" d="M228.352 498.581s9.575-5.132 11.591-1.026c0 0-1.512 12.316 4.536 13.856 6.048 1.54 8.568 12.316 0 13.342-8.567 1.027-14.111-2.052-17.135-2.052-3.024 0 0-10.777 0-10.777l1.008-13.343z"/><path fill="#FFB8B8" fill-rule="nonzero" d="M179 474.043l1.931 22.88 7.242 1.04 4.827-26z"/><path fill="#2F2E41" fill-rule="nonzero" d="M191.648 498.581s-9.575-5.132-11.591-1.026c0 0 1.512 12.316-4.536 13.856-6.048 1.54-8.568 12.316 0 13.342 8.567 1.027 14.111-2.052 17.135-2.052 3.024 0 0-10.777 0-10.777l-1.008-13.343z"/><circle cx="219.5" cy="284.463" r="13.5" fill="#FFB8B8" fill-rule="nonzero"/><path fill="#FFB8B8" fill-rule="nonzero" d="M179 309.763l10.495 16.694 12.493-1.012 20.49 1.518s1.933-3.916 3.513-7.725a30.179 30.179 0 001.983-5.934c.5-3.541-6.496-7.082-6.496-7.082s-.275-.05-.735-.162c-.61-.147-1.549-.39-2.578-.744-2.324-.799-5.118-2.155-5.682-4.153-1-3.541 6.496-8.6 6.496-8.6l-8.995-8.6s-7.991 11.236-17.696 13.795c-.563.15-1.133.27-1.71.354l-.084.016C179.999 299.645 179 309.763 179 309.763z"/><path fill="#FFB8B8" fill-rule="nonzero" d="M184.264 305.963l-5.787 4.538s-4.736 21.683-3.158 27.734c1.579 6.05-.526 11.598-.526 12.606 0 1.009-4.735 38.827-4.735 38.827s-9.471 20.17.526 18.153c9.997-2.017 6.314-22.187 6.314-22.187L189 350.337v-29.75l-4.736-14.624zm39.782 4l4.09 3 2.047 41.995 15.342 35.997s11.251 17.498 4.091 17.998c-7.16.5-11.762-17.998-11.762-17.998l-13.808-34.497L222 322.962l2.046-12.999z"/><path fill="#2F2E41" fill-rule="nonzero" d="M198.734 311.963s10.087 7.078 26.226 4.55c0 0 4.54 9.1 2.018 14.155-2.522 5.056 3.026 17.189 4.034 18.705 1.009 1.517 12.609 32.86 16.644 66.732 4.034 33.872 15.13 57.127 5.547 60.16-9.582 3.033-29.252 6.572-31.269 3.539-2.017-3.033-5.043-78.36-5.043-78.36l-5.548 28.817s7.565 49.037 2.017 50.049c-5.547 1.01-40.347-2.023-39.339-8.09 1.01-6.066 11.096-37.915 11.096-37.915s-.504-63.699 9.583-75.832c0 0 4.034-6.572-1.513-15.166-5.548-8.595-5.044-22.244-5.044-22.244s4.035 0 10.591-9.1z"/><path fill="#2F2E41" fill-rule="nonzero" d="M190 298.315l8.08 18.648 1.92-1.007-8.358-17.993zm28 7.648l6.452 14 1.548-.136-.526-2.383-4.838-10.74a29.698 29.698 0 01-2.636-.741zm-20.623-10.977c.989 3.266 3.79 5.605 7.107 5.937 3.318.331 6.505-1.41 8.09-4.419-6.366-8.54-.906-13.905 9.436-17.963 1.593-3.034 1.24-6.755-.891-9.418-5.773-.758-11.57 1.2-15.776 5.329l-.005.005-7.347 13.982a8.656 8.656 0 00-.614 6.547z"/><ellipse cx="212.5" cy="285.963" fill="#FFB8B8" fill-rule="nonzero" rx="1.5" ry="3"/><path fill="#2F2E41" fill-rule="nonzero" d="M218 281.084l15.212 6.879 2.788-6.141a14.535 14.535 0 00-2.935-6.127l-10.47-4.732L218 281.084z"/><circle cx="254.5" cy="409.463" r="6.5" fill="#222F65" fill-rule="nonzero"/><circle cx="38.5" cy="451.463" r="4.5" fill="#FF6584" fill-rule="nonzero"/><path fill="#3F3D56" fill-rule="nonzero" d="M59 474.963h1v50h-1z"/><circle cx="60" cy="473.963" r="7" fill="#3F3D56" fill-rule="nonzero"/><path fill="#3F3D56" fill-rule="nonzero" d="M59 504.963s-.977-21.273-21-18.8"/></g></svg>