<svg xmlns="http://www.w3.org/2000/svg" width="445" viewBox="0 0 445 313"><g fill="none" fill-rule="evenodd"><circle cx="167" cy="160.935" r="144" fill="#F2F2F2" fill-rule="nonzero"/><path fill="#3F3D56" fill-rule="nonzero" d="M190.108 182.892c-31.707 48.877-23.02 111.043-23.02 111.043s60.096-17.08 91.804-65.957c31.707-48.878 23.02-111.043 23.02-111.043s-60.096 17.08-91.804 65.957z"/><path fill="#222F65" fill-rule="nonzero" d="M166.991 292.935s-.776-.123-2.205-.411c-1.14-.23-2.71-.56-4.626-1.011-17.13-4.02-62.675-17.61-92.452-53.337C30.44 193.438 32.01 130.935 32.01 130.935s56.985 9.215 94.534 49.39a114.528 114.528 0 014.75 5.369c32.427 38.926 35.45 91.3 35.69 104.249.033 1.94.008 2.992.008 2.992z"/><path stroke="#3F3D56" stroke-width="2" d="M143.892 182.892c31.707 48.877 23.02 111.043 23.02 111.043s-60.096-17.08-91.804-65.957c-31.707-48.878-23.02-111.043-23.02-111.043s60.096 17.08 91.804 65.957z"/><path fill="#000" fill-rule="nonzero" d="M167 290.99a181.005 181.005 0 01-2.19 2.593c-1.35 1.543-2.117 2.352-2.117 2.352s-.93-1.172-2.494-3.368c-8.589-12-36.215-54.673-34.082-103.964.115-2.584.305-5.14.568-7.668 1.622 1.733 3.2 3.53 4.735 5.39 32.327 39.081 35.34 91.665 35.58 104.665z" opacity=".1"/><path fill="#222F65" fill-rule="nonzero" d="M214.883 192.216c-2.528 58.266-45.961 103.719-45.961 103.719s-39.334-49.015-36.805-107.281c2.528-58.266 45.961-103.72 45.961-103.72s39.334 49.016 36.805 107.282z"/><path stroke="#3F3D56" stroke-width="2" d="M169 293.935l9-207"/><ellipse cx="222.5" cy="298.935" fill="#3F3D56" fill-rule="nonzero" rx="222.5" ry="14"/><path fill="#3F3D56" fill-rule="nonzero" stroke="#3F3D56" stroke-width="2" d="M37 293.935v-56"/><circle cx="37" cy="237.935" r="8" fill="#3F3D56" fill-rule="nonzero"/><path fill="#3F3D56" fill-rule="nonzero" d="M37 272.935s-1.116-24.632-24-21.769"/><path fill="#3F3D56" fill-rule="nonzero" stroke="#3F3D56" stroke-width="2" d="M228 202.935v-156"/><circle cx="228" cy="47.935" r="11" fill="#3F3D56" fill-rule="nonzero"/><path fill="#3F3D56" fill-rule="nonzero" d="M228 91.935s-1.535-33.589-33-29.684"/><path fill="#2F2E41" fill-rule="nonzero" d="M358.286 116.935l-9.377 17.635s-67.801 12.956-59.146 33.11c8.656 20.154 18.393 49.665 23.442 48.946 5.05-.72 32.819-16.556 33.9-21.234 1.083-4.679-24.884-26.632-24.884-26.632l42.917-8.278s6.13 28.792-1.803 48.586c-7.934 19.794-12.623 73.418-7.213 74.138 5.41.72 19.114 5.038 25.245 1.08 6.13-3.96 9.016-90.694 9.016-90.694s12.983-56.863 5.049-63.341c-7.934-6.478-37.146-13.316-37.146-13.316z"/><path fill="#2F2E41" fill-rule="nonzero" d="M372.942 275.192s-8.378-4.424-10.142-.885c0 0 1.323 10.618-3.97 11.945-5.291 1.327-7.496 10.618 0 11.502 7.497.885 12.348-1.77 14.994-1.77 2.646 0 0-9.29 0-9.29l-.882-11.502zm-39.977-72.422s-9.13-2.56-10.11 1.285c0 0 3.528 10.134-1.37 12.559-4.899 2.425-5.101 12.006 2.42 11.282 7.521-.724 11.709-4.357 14.298-4.919 2.588-.561-1.955-9.112-1.955-9.112l-3.283-11.095z"/><path fill="#9F616A" fill-rule="nonzero" d="M378.395 54.794s.357 13.43-2.137 14.518c-2.493 1.09 13.892 7.623 13.892 7.623l2.85-5.082s-3.206-18.148-2.493-19.6c.712-1.452-12.112 2.54-12.112 2.54z"/><circle cx="384" cy="35.935" r="22" fill="#2F2E41" fill-rule="nonzero"/><circle cx="386" cy="14.935" r="9" fill="#2F2E41" fill-rule="nonzero"/><path fill="#2F2E41" fill-rule="nonzero" d="M373.887 9.935c0-4.608 3.502-8.471 8.113-8.951a9.191 9.191 0 00-.943-.05c-5.002 0-9.057 4.03-9.057 9 0 4.971 4.055 9 9.057 9 .315 0 .63-.015.943-.048-4.611-.48-8.113-4.344-8.113-8.951z"/><circle cx="383" cy="46.935" r="15" fill="#9F616A" fill-rule="nonzero"/><path fill="#D0CDE1" fill-rule="nonzero" d="M394.25 66.744s-12.953 3.94-19.43 0-21.95 7.523-24.47 12.538c-2.518 5.015 9.356 10.03 9.356 10.03s-3.39 9.684-2.698 14.507c.72 5.015-.54 15.224-.54 15.224s31.79 20.85 38.862 11.463c1.08-1.433 10.076-35.105 10.076-35.105L418 82.864s-7.916-11.463-12.594-12.538c-4.678-1.074-11.155-3.582-11.155-3.582z"/><path fill="#9F616A" fill-rule="nonzero" d="M306.937 139.935s-24.253 12.838-19.26 16.506C292.671 160.11 313 142.136 313 142.136l-6.063-2.201zm95.985-9.061s-10.995-7.717-12.766-3.859c-1.77 3.859 12.04 12.547 14.947 9.147 2.907-3.4-2.18-5.288-2.18-5.288z"/><path fill="#D0CDE1" fill-rule="nonzero" d="M411.768 77.935l6.413 3.988s21.733 30.456 14.252 37.345c-7.482 6.89-26.721 20.667-26.721 20.667s-6.413-9.427-4.276-9.79c2.138-.362 19.24-14.865 19.24-14.865L405.711 87l6.056-9.065zm-57.588-1l-4.667 1.81-12.205 22.089L305 140.303s4.308 6.88 7.897 5.432c3.59-1.449 30.513-31.866 30.513-31.866L361 86.35l-6.82-9.414z"/><ellipse cx="384.5" cy="28.935" fill="#2F2E41" fill-rule="nonzero" rx="15.5" ry="9"/><path fill="#222F65" fill-rule="nonzero" d="M282 223.935h71v71h-71z"/><path fill="#FFF" fill-rule="nonzero" d="M343 256.99c0 10.032-4.699 16.354-12.133 16.354-3.806 0-6.703-2.031-7.205-5.05h-.541c-1.34 3.14-4.103 4.86-7.814 4.86-6.608 0-11.023-5.293-11.023-13.172 0-7.568 4.442-12.834 10.929-12.834 3.33 0 6.161 1.679 7.407 4.427h.541v-3.764h5.404v17.505c0 2.18 1.205 3.493 3.371 3.493 3.752 0 6.135-4.55 6.135-11.616 0-11.277-8.45-18.818-20.936-18.818-12.35 0-21.152 9.003-21.152 21.742 0 13.024 8.708 21.336 22.263 21.336 2.47.014 4.935-.194 7.366-.623a2.141 2.141 0 01.908 4.183 37.882 37.882 0 01-8.49.921C301.548 285.92 291 275.74 291 259.941c0-15.42 10.766-26.006 26.46-26.006 15.086 0 25.54 9.409 25.54 23.055zm-32.88 3.114c0 5.009 2.357 8.041 6.19 8.041 4.035 0 6.58-3.114 6.58-8.041 0-4.928-2.545-7.974-6.513-7.974-3.94 0-6.256 2.951-6.256 7.974z"/></g></svg>