<svg xmlns="http://www.w3.org/2000/svg" viewBox="0 0 480 316"><g fill="none" fill-rule="nonzero" transform="translate(-75 -78)"><path fill="#F2F2F2" d="M174.08 214.824c-24.3.111-44.08.468-44.08.468s23.511-30.906 43.992-19.456C194.472 207.286 218 214.89 218 214.89s-19.62-.176-43.92-.065z"/><circle cx="446" cy="219.292" r="5" fill="#FF6584"/><path fill="#3F3D56" d="M408.99 298.606l37.987-43.621 1.172 1.02-37.987 43.622z"/><circle cx="448" cy="255.292" r="8" fill="#3F3D56"/><path fill="#3F3D56" d="M424.286 282.292s15.36-19.573-4.286-33m-250.422 67.404c28.148 52.191 87.889 74.596 87.889 74.596s14.103-62.214-14.045-114.405c-28.148-52.19-87.889-74.595-87.889-74.595s-14.103 62.214 14.045 114.404z"/><path fill="#111B47" d="M188.621 299.752C239.431 330.408 259 391.3 259 391.3s-62.811 11.188-113.621-19.468C94.569 341.176 75 280.284 75 280.284s62.811-11.189 113.621 19.468z"/><path fill="#3F3D56" d="M390.194 300.022C339.108 330.259 319 391.042 319 391.042s62.72 11.757 113.806-18.48c51.086-30.238 71.194-91.02 71.194-91.02s-62.72-11.758-113.806 18.48z"/><path fill="#111B47" d="M408.739 318.512c-28.605 51.915-88.532 73.78-88.532 73.78s-13.55-62.306 15.054-114.22c28.605-51.916 88.532-73.78 88.532-73.78s13.55 62.306-15.054 114.22z"/><path fill="#2F2E41" d="M304.881 176.332c-6.015-5.443-6.857-14.59-1.937-21.04-.314.294-.621.6-.915.926-5.779 6.393-5.282 16.262 1.109 22.043 6.39 5.781 16.255 5.284 22.033-1.11.294-.324.568-.66.829-1.003-5.921 5.545-15.102 5.625-21.119.184z"/><circle cx="290.5" cy="154.792" r="32.5" fill="#2F2E41"/><path fill="#FFB8B8" d="M281.238 196.323l.974-2.506-17.736 14.84-21.438 11.95s-10.915-41.63-11.694-42.4c-.78-.771-14.812-30.065-21.05-16.19-6.236 13.877 12.084 21.971 12.084 21.971s.585 50.687 19.295 50.302c18.71-.386 41.904-17.153 42.293-18.695.39-1.542-2.728-19.272-2.728-19.272z"/><circle cx="286.5" cy="168.792" r="19.5" fill="#FFB8B8"/><path fill="#FFB8B8" d="M289.88 183.042s5.063 6.568 3.505 7.34c-1.558.773-10.517 1.16-15.97 7.728-5.454 6.568 6.621 23.182 6.621 23.182L330 190.769l-18.697-6.182s-12.854-6.954-12.465-14.295l-8.959 12.75z"/><path fill="#2F2E41" d="M352 393.292h-51.63c-2.925-21.338-4.277-40.892-4.277-40.892s-.754 19.67-2.762 40.892H227c9.403-62.84 53.978-130.985 53.978-130.985s.388-9.282 1.551-10.83c1.164-1.543-6.588-1.93-10.078-13.53-2.128-7.08-.215-11.714 1.604-14.246a10.245 10.245 0 012.274-2.384s.776-8.117 0-9.278c-.1-.152.666-.685 2.08-1.496 1.18-.68 2.81-1.553 4.76-2.557 11.169-5.779 32.788-16.003 40.194-19.486 1.624-.769 2.568-1.208 2.568-1.208l13.176 4.639c10.461 3.477 10.461 25.52 10.461 25.52l-.592.9-15.812 23.9-9.172 13.87c2.327 1.542-2.322 11.212-2.322 11.212s6.625 9.497 12.012 23.994a108.935 108.935 0 016.19 25.025 85.42 85.42 0 01.398 16.714c-1.436 18.628 4.948 41.268 11.73 60.226z"/><path fill="#FFB8B8" d="M338.95 193.726a3.312 3.312 0 00-2.81-.22 3.366 3.366 0 00-1.98 2.032c-1.153 3.208-2.322 9.896-1.905 23.801.766 25.573 1.149 43.01 1.149 43.01v38.746s-16.853 37.197-7.66 37.197c9.192 0 15.703-29.448 15.703-29.448s8.427-44.558 5.745-52.308c0 0 7.56-53.535-8.241-62.81z"/><ellipse cx="284.5" cy="151.792" fill="#2F2E41" rx="16.5" ry="11.5"/><circle cx="311" cy="126.292" r="16" fill="#2F2E41"/><path fill="#2F2E41" d="M322 137.676c-8.318 0-15.248-6.254-15.94-14.384-.037.431-.06.867-.06 1.307 0 8.667 7.163 15.693 16 15.693s16-7.026 16-15.693c0-.44-.023-.876-.06-1.307-.692 8.13-7.622 14.383-15.94 14.384z"/><ellipse cx="304.669" cy="162.295" fill="#FFB8B8" rx="1.356" ry="3.1" transform="rotate(-13.434 304.67 162.295)"/><circle cx="305" cy="164.292" r="1" fill="#F2F2F2"/><path fill="#3F3D56" d="M121.5 231.292a6.5 6.5 0 116.5-6.5 6.507 6.507 0 01-6.5 6.5zm0-11.917a5.417 5.417 0 105.417 5.417 5.423 5.423 0 00-5.417-5.417zM393 185.292h-14v-14h14v14zm-12.923-1.077h11.846v-11.846h-11.846v11.846z"/><path fill="#F2F2F2" d="M511.08 257.824c-24.3.111-44.08.468-44.08.468s23.511-30.906 43.992-19.456C531.472 250.286 555 257.89 555 257.89s-19.62-.176-43.92-.065zm-75-105c-24.3.111-44.08.468-44.08.468s23.511-30.906 43.992-19.456C456.472 145.286 480 152.89 480 152.89s-19.62-.176-43.92-.065zm-229.722 13.601l-56.122-28.972c-3.832-1.979-5.341-6.701-3.37-10.549l13.22-25.813a3.094 3.094 0 011.885-1.56l44.234-12.949c3.672-1.075 7.54.922 8.806 4.546l14.534 41.621a8.14 8.14 0 01-.44 6.393l-12.24 23.898a7.811 7.811 0 01-4.555 3.877 7.775 7.775 0 01-5.952-.492z"/><path fill="#000" d="M208.347 156.868l-56.542-24.241c-1.821-.941-.113.505.824-1.325l7.107-29.01L229 138.059l-17.51 21.744c-.937 1.83-1.321-1.994-3.143-2.935z" opacity=".1"/><path fill="#111B47" d="M157.62 128.91l19.04-37.028a8.186 8.186 0 0111.023-3.536l37.027 19.04a8.186 8.186 0 013.536 11.023l-19.04 37.027a8.186 8.186 0 01-11.023 3.536l-37.026-19.04a8.186 8.186 0 01-3.537-11.023z"/><path fill="#000" d="M220 133.877l-14.542 28.415L154 135.706l14.542-28.414 19.335 25.787z" opacity=".1"/><path fill="#F2F2F2" d="M187.252 134.949l-24.964-33.055a1.517 1.517 0 00-2.559.218l-14.205 27.556a4.71 4.71 0 00-.298 3.6 4.724 4.724 0 002.342 2.756l61.892 31.745a4.743 4.743 0 003.61.297 4.73 4.73 0 002.763-2.336l13.962-27.084a1.84 1.84 0 00-.054-1.785 1.85 1.85 0 00-1.545-.902l-40.944-1.01zm-4.84-43.325l14.427 7.418-1.049 2.04-14.427-7.418zm-4.987 6.832l42.843 22.03-.6 1.167-42.842-22.03zm-2.023 3.935l42.843 22.03-.6 1.166-42.843-22.03z"/><path fill="#F2F2F2" d="M173.379 106.326l42.843 22.03-.6 1.166-42.843-22.03z"/><ellipse cx="182.098" cy="86.501" fill="#FFF" rx="6.731" ry="6.718" transform="rotate(-62.787 182.098 86.501)"/><path fill="#57B894" d="M185.664 79.179a8.004 8.004 0 00-10.777 3.455 7.996 7.996 0 003.458 10.77 8.004 8.004 0 0010.776-3.455 8.02 8.02 0 00-3.457-10.77zm-7.072 10.154l-1.772-5.52 1.55-.496 1.276 3.977 8.398-2.693.497 1.548-9.949 3.184z"/></g></svg>