<svg xmlns="http://www.w3.org/2000/svg" width="540" viewBox="0 0 540 389"><g fill="none" fill-rule="evenodd"><path fill="#F2F2F2" fill-rule="nonzero" d="M540 233.484c0 67.655-40.294 91.277-90 91.277s-90-23.622-90-91.277 90-153.723 90-153.723 90 86.068 90 153.723z"/><path fill="#3F3D56" fill-rule="nonzero" d="M446.955 314.639l.916-56.676L486 187.848l-37.985 61.225.412-25.484 26.278-50.728-26.17 43.984.741-45.834 28.14-40.386-28.024 33.18.463-84.044-2.908 111.258.239-4.59-28.61-44.018 28.15 52.829-2.665 51.188-.08-1.359L411 198.747l32.882 51.122-.333 6.401-.06.097.027.525-6.763 129.87h9.036l1.084-67.08 32.802-50.998z"/><path fill="#F2F2F2" fill-rule="nonzero" d="M49 346.172c0 18.226-10.969 24.59-24.5 24.59S0 364.397 0 346.171c0-18.225 24.5-41.41 24.5-41.41S49 327.946 49 346.171z"/><path fill="#3F3D56" fill-rule="nonzero" d="M23.588 367.263l.244-15.323L34 332.983l-10.13 16.553.11-6.89 7.008-13.715-6.979 11.892.198-12.392 7.504-10.918-7.473 8.97.124-22.722-.776 30.08.063-1.241-7.629-11.9 7.507 14.282-.71 13.839-.022-.367L14 335.93l8.768 13.821-.088 1.73-.016.027.007.142-1.804 35.111h2.41l.289-18.135 8.748-13.788z"/><path stroke="#3F3D56" stroke-width="2" d="M3 387.261h489"/><path fill="#111B47" fill-rule="nonzero" d="M493 370.996c0 12.427-7.387 16.765-16.5 16.765a28.379 28.379 0 01-1.886-.064c-8.224-.582-14.614-5.144-14.614-16.7 0-11.96 15.284-27.052 16.432-28.17l.002-.001a8.94 8.94 0 01.066-.065S493 358.57 493 370.996z"/><path fill="#3F3D56" fill-rule="nonzero" d="M475.712 385.867l6.107-8.434-6.123 9.36-.016.968c-.427-.009-.85-.029-1.269-.057l.659-12.434-.005-.097.01-.018.063-1.174-6.138-9.383 6.157 8.502.014.25.498-9.396-5.255-9.695 5.319 8.046.518-19.477.002-.067v.065l-.087 15.36 5.232-6.09-5.253 7.412-.138 8.412 4.884-8.073-4.905 9.31-.077 4.677L483 362.598l-7.117 12.868-.171 10.401z"/><rect width="6" height="47" x="313" y="88.761" fill="#3F3D56" fill-rule="nonzero" rx="2.292"/><rect width="3" height="15" x="124" y="51.761" fill="#3F3D56" fill-rule="nonzero" rx="1.5"/><rect width="4" height="27" x="124" y="79.761" fill="#3F3D56" fill-rule="nonzero" rx="1.695"/><rect width="3" height="27" x="124" y="116.761" fill="#3F3D56" fill-rule="nonzero" rx="1.5"/><rect width="190" height="386" x="126" y=".761" fill="#3F3D56" fill-rule="nonzero" rx="35.694"/><rect width="27" height="5" x="202" y="12.761" fill="#E6E8EC" fill-rule="nonzero" rx="2.5"/><circle cx="236" cy="14.761" r="3" fill="#E6E8EC" fill-rule="nonzero"/><path fill="#FFF" fill-rule="nonzero" d="M305 25.851v335.826c-.002 8.333-6.777 15.084-15.133 15.084H153.133c-8.356 0-15.131-6.751-15.133-15.084V25.851c0-4.002 1.594-7.84 4.432-10.67a15.155 15.155 0 0110.701-4.42h20.461v2.62c.002 6.862 5.58 12.424 12.461 12.426h69.537c6.882 0 12.461-5.563 12.461-12.425v-2.62h21.814c4.014 0 7.863 1.589 10.701 4.419A15.068 15.068 0 01305 25.85z"/><path fill="#F2F2F2" fill-rule="nonzero" d="M138 88.761h167v192H138z"/><path fill="#FF6584" fill-rule="nonzero" d="M150 306.761l-.87-.779c-3.09-2.817-5.13-4.646-5.13-6.923a3.229 3.229 0 01.949-2.342 3.274 3.274 0 012.351-.955 3.559 3.559 0 012.7 1.259 3.559 3.559 0 012.7-1.26c.881-.01 1.73.335 2.351.956.622.622.964 1.466.948 2.342 0 2.277-2.04 4.106-5.129 6.923l-.87.78z"/><path fill="#F2F2F2" fill-rule="nonzero" d="M181 304.299l1.734.462c.629-1.701 2.116-3.005 3.975-3.484 1.859-.479 3.852-.072 5.327 1.088l-2.649 2.396H196v-6l-2.665 2.385c-1.935-1.584-4.594-2.156-7.077-1.521-2.482.635-4.458 2.39-5.258 4.674z"/><circle cx="148.5" cy="67.261" r="7.5" fill="#111B47" fill-rule="nonzero"/><path fill="#111B47" fill-rule="nonzero" d="M162 62.761h72v9h-72z"/><path fill="#F2F2F2" fill-rule="nonzero" d="M143 319.761h72v9h-72zm1 19h151v9H144zm30-32l-1.844-3.286c.912-2.23.073-4.803-1.967-6.035a4.703 4.703 0 00-6.143 1.138 4.916 4.916 0 00.246 6.353 4.698 4.698 0 006.211.643l3.497 1.187z"/><path fill="#2F2E41" fill-rule="nonzero" d="M206.555 133.212a21.952 21.952 0 00-13.921 9.51 22.369 22.369 0 00-3.188 16.669l4.531 22.37 5.074-1.048.358-2.371 1.063 2.077 30.846-6.377.358-2.37 1.063 2.076 4.261-.88-4.532-22.372a22.19 22.19 0 00-9.413-14.064 21.774 21.774 0 00-16.5-3.22z"/><path fill="#9F616A" fill-rule="nonzero" d="M245.647 201.761L272 217.948l-3.294 7.813L244 214.041z"/><path fill="#111B47" fill-rule="nonzero" d="M211.906 220.4s-53.514 0-62.341 13.761c-8.827 13.761-1.655 33.026 25.93 37.43 27.584 4.403 111.442 6.605 118.062-9.908 6.62-16.513 1.656-25.87 1.656-25.87s-28.689-19.817-83.307-15.413z"/><path fill="#111B47" fill-rule="nonzero" d="M258.606 233.747L288 244.76s12.202-8.811 6.101-18.725c-6.1-9.913-33.832-67.19-33.832-67.19s-7.764-11.014 2.219-17.072 13.865 3.855 13.865 3.855-.554 2.203 3.328.551c3.883-1.652 11.093 3.855 7.21 12.667-3.882 8.812-6.655 11.015 1.664 10.464 3.004-.199 5.647-2.337 7.797-4.988 4.122-5.08 2.282-9.172 1.97-15.689-.534-11.163-1.408-18.441-4.22-22.831-3.883-6.058-9.43-11.015-23.85-8.261-14.42 2.753-35.495 16.522-30.503 36.348 4.991 19.827 16.084 41.856 16.084 41.856s7.764 30.841 2.773 38z"/><path fill="#000" fill-rule="nonzero" d="M259 233.538c-4.762 1.314-10.743 1.954-17.18 2.153-11.233.348-23.877-.646-33.975-1.772-10.908-1.22-18.845-2.59-18.845-2.59 3.687-3.444 9.354-4.807 16.012-5.304 8.268-.619 18.068.088 27.531-.216 3.49-.122 6.98.141 10.412.784 10.44 1.993 16.045 6.945 16.045 6.945z" opacity=".1"/><circle cx="211.5" cy="158.261" r="15.5" fill="#9F616A" fill-rule="nonzero"/><path fill="#9F616A" fill-rule="nonzero" d="M209.253 170.873s2.722 10.555 0 11.11c-2.721.556-9.253 3.334-9.253 3.334l8.165 3.333 15.24 14.445 13.063 6.666L243 207.54v-12.222l-9.797-15.556s-6.532 2.223-8.165-5c-1.633-7.222-4.899-10-4.899-10l-10.886 6.112z"/><path fill="#9F616A" fill-rule="nonzero" d="M205.355 185.761h-6.616s-11.58 3.837-18.196 12.607c-6.617 8.77-17.093 17.539-17.093 17.539s-7.168 9.866-3.309 23.568c3.86 13.702 9.374 23.568 14.336 20.828 4.963-2.74-7.168-22.472-7.168-22.472l3.309-12.058s17.093-19.732 24.261-19.184c7.168.548 7.72 6.577 7.72 6.577l15.438 4.385L223 207.137l-2.757-10.962-14.888-10.414z"/><path fill="#3F3D56" fill-rule="nonzero" d="M244.775 221a20.16 20.16 0 00-2.253 5.69 44.178 44.178 0 00-1.129 9.002c-11.173.344-23.748-.64-33.792-1.754a348.079 348.079 0 01-2.817-7.81c-2.572-7.396-4.962-14.944-4.962-16.053 0-2.185 11.513 1.639 14.254 1.093 2.74-.547 3.837-9.286 0-13.655C210.238 193.143 199 185.77 199 185.77l3.837-1.093s8.498 6.281 26.04 16.66c17.543 10.377 10.416-6.009 10.416-6.009l-10.142-15.567h4.386s8.497 14.475 12.883 21.029c4.386 6.554 2.741 13.109-1.645 20.21z"/><path fill="#2F2E41" fill-rule="nonzero" d="M194.366 143.663l27.916-5.713 3.506 17.13-27.916 5.713z"/><circle cx="282.5" cy="132.261" r="8.5" fill="#3F3D56" fill-rule="nonzero"/><circle cx="282.5" cy="132.261" r="4.5" fill="#FFF" fill-rule="nonzero"/><path fill="#111B47" fill-rule="nonzero" d="M39.467 226.761l-.573 4.328c-.195 1.465-.389 2.931-.493 4.405-.348 4.903.3 9.825.13 14.736-.132 3.782-.748 7.56-.45 11.333.263 3.337 1.235 6.576 2.201 9.787l1.381 4.589a.89.89 0 00.418.68c.24.151.538.184.806.09l6.113-.542c-.391-1.754-.827-3.582-1.037-5.365-.167-1.41-.267-2.828-.371-4.244-.325-4.413-.694-8.824-1.062-13.235l-.647-7.748c-.28-3.36-.564-6.742-1.43-10.006a19.8 19.8 0 00-4.986-8.808z"/><path fill="#000" fill-rule="nonzero" d="M39.467 226.761l-.573 4.328c-.195 1.465-.389 2.931-.493 4.405-.348 4.903.3 9.825.13 14.736-.132 3.782-.748 7.56-.45 11.333.263 3.337 1.235 6.576 2.201 9.787l1.381 4.589a.89.89 0 00.418.68c.24.151.538.184.806.09l6.113-.542c-.391-1.754-.827-3.582-1.037-5.365-.167-1.41-.267-2.828-.371-4.244-.325-4.413-.694-8.824-1.062-13.235l-.647-7.748c-.28-3.36-.564-6.742-1.43-10.006a19.8 19.8 0 00-4.986-8.808z" opacity=".1"/><path fill="#3F3D56" fill-rule="nonzero" d="M50.847 376.201c-.357.699-.667 1.42-.929 2.159-.694 2.04-.8 4.227-.898 6.38a3.05 3.05 0 00.113 1.237c.297.774 1.153 1.166 1.953 1.381 3.352.902 6.886.053 10.342-.256 3.393-.304 6.85-.084 10.173-.833a5.06 5.06 0 001.409-.49 4.38 4.38 0 001.78-2.325c.1-.244.169-.501.202-.764.11-1.133-.878-2.117-1.953-2.49-1.075-.372-2.244-.31-3.376-.427a10.645 10.645 0 01-9.418-8.887c-.04-.247-5.596-.101-6.181.22-.685.375-1.099 1.313-1.485 1.947a41.184 41.184 0 00-1.732 3.148z"/><path fill="#000" fill-rule="nonzero" d="M50.847 376.201c-.357.699-.667 1.42-.929 2.159-.694 2.04-.8 4.227-.898 6.38a3.05 3.05 0 00.113 1.237c.297.774 1.153 1.166 1.953 1.381 3.352.902 6.886.053 10.342-.256 3.393-.304 6.85-.084 10.173-.833a5.06 5.06 0 001.409-.49 4.38 4.38 0 001.78-2.325c.1-.244.169-.501.202-.764.11-1.133-.878-2.117-1.953-2.49-1.075-.372-2.244-.31-3.376-.427a10.645 10.645 0 01-9.418-8.887c-.04-.247-5.596-.101-6.181.22-.685.375-1.099 1.313-1.485 1.947a41.184 41.184 0 00-1.732 3.148z" opacity=".1"/><path fill="#3F3D56" fill-rule="nonzero" d="M59.847 376.201c-.357.699-.667 1.42-.929 2.159-.694 2.04-.8 4.227-.898 6.38a3.05 3.05 0 00.113 1.237c.297.774 1.153 1.166 1.953 1.381 3.352.902 6.886.053 10.342-.256 3.393-.304 6.85-.084 10.173-.833a5.059 5.059 0 001.409-.49 4.38 4.38 0 001.78-2.325c.1-.244.169-.501.202-.764.11-1.133-.878-2.117-1.953-2.49-1.075-.372-2.244-.31-3.376-.427a10.645 10.645 0 01-9.418-8.887c-.04-.247-5.596-.101-6.181.22-.685.375-1.099 1.313-1.485 1.947a41.184 41.184 0 00-1.732 3.148z"/><path fill="#2F2E41" fill-rule="nonzero" d="M82.999 321.716c.07 11.047-3.111 21.844-6.843 32.228a294.326 294.326 0 01-4.703 12.224c-.982 2.393-2.088 5.049-1.036 7.412-3.027-1.163-6.126-1.85-9.322-1.313 1.217-2.504 1.102-5.418 1.156-8.205a72.2 72.2 0 011.207-11.274 63.245 63.245 0 015.458-16.298 12.41 12.41 0 001.058-3.436c.33-2.649.178-5.337-.45-7.93a47.594 47.594 0 00-6.528-16.153c-.01.11-.02.22-.032.33a48.62 48.62 0 01-.82 4.89c-.715 3.42-1.549 6.844-1.424 10.284a55.9 55.9 0 01-.668 10.904 16.622 16.622 0 01-1.086 4.123c-.35.79-.805 1.534-1.08 2.353a10.845 10.845 0 00-.424 2.913c-.407 8.318-.006 18.962 1.678 27.117a15.565 15.565 0 00-8.16 1.876c-2.035-5.798-3.332-14.035-4.301-20.142a60.2 60.2 0 01.658-21.704c.477-2.38.656-4.81.532-7.236-.217-4.83-1.393-9.554-2.561-14.243a64249.884 64249.884 0 01-4.322-17.315c-.562-2.256-1.13-4.56-.953-6.882a17.3 17.3 0 01.789-3.74 41.978 41.978 0 015.604-11.575c9.753.554 19.625-.369 29.365-1.125.473-.094.965-.01 1.38.237.331.34.528.791.555 1.267l3.659 20.936a53.253 53.253 0 011.042 8.847c.018 2.964-.458 5.917-.347 8.878.148 3.989.895 7.761.919 11.752z"/><path fill="#000" fill-rule="nonzero" d="M63 309.942a46.5 46.5 0 01-.837 4.82c-2.161-3.653-4.491-7.214-6.481-10.958-.514-.965-1.002-1.942-1.493-2.917l-1.467-2.925c-.274-.548-.55-1.097-.798-1.659a11.848 11.848 0 01-.924-2.535c.724-.13 2.508 1.776 3.043 2.274a40.901 40.901 0 013.11 3.348 36.552 36.552 0 013.229 4.13A19.849 19.849 0 0163 309.942z" opacity=".1"/><path fill="#EFB7B9" fill-rule="nonzero" d="M72 208.377s-5.551 8.961-4.523 10.837C68.505 221.089 50 217.546 50 217.546s10.075-8.96 9.047-12.712C58.019 201.083 72 208.377 72 208.377z"/><circle cx="66.5" cy="198.261" r="12.5" fill="#EFB7B9" fill-rule="nonzero"/><path fill="#111B47" fill-rule="nonzero" d="M71.863 216.975a12.671 12.671 0 00-5.244-4.204 18.984 18.984 0 00-3.725-.913l-4.975-.869c-1.219-.213-2.524-.417-3.655.083a5.919 5.919 0 00-1.558 1.132c-1.73 1.59-3.405 3.34-5.573 4.259-.593.251-1.214.435-1.807.689-2.425 1.038-4.239 3.204-5.27 5.62-1.08 2.535-1.112 5.282-1.026 8.033-.003.95.091 1.897.28 2.828.251.885.567 1.752.944 2.592a46.65 46.65 0 011.723 5.495 172.772 172.772 0 013.214 14.854 5.61 5.61 0 00.627 2.056c.48.637 1.06 1.19 1.72 1.642.522.43 1.004.904 1.441 1.419.213.22.37.487.456.78.161.74-.497 1.373-1.03 1.913a9.226 9.226 0 00-2.33 4.029c-.26.31-.392.709-.37 1.113.108.28.147.58.117.879a2.029 2.029 0 01-.469.724 2.718 2.718 0 00-.517 2.19 35.228 35.228 0 0012.21 2.84c1.03.048 2.066.048 3.09.173.73.09 1.451.243 2.182.327 1.064.1 2.132.126 3.2.081 5.55-.109 11.262-.252 16.359-2.438.48-2.597-.554-5.243-1.203-7.804-1.032-4.072-1.292-8.296-2.06-12.425-.525-2.827-1.288-5.608-1.726-8.45-.437-2.84-.54-5.786.246-8.552.697-2.451.907-4.947 1.63-7.39.721-2.444 1.227-5.094.412-7.509-1.01-2.994-4.138-5.362-7.313-5.197z"/><path fill="#2F2E41" fill-rule="nonzero" d="M77.838 192.258c.609-2.184-.59-4.458-2.022-6.232-1.54-1.907-3.53-3.627-5.96-4.105-1.974-.39-4.02.08-6.027-.076-1.78-.139-3.485-.765-5.255-.99a16.947 16.947 0 00-4.803.179 18.138 18.138 0 00-4.378 1.2c-5.332 2.32-8.457 8.05-9.182 13.733-.724 5.683.547 11.408 1.81 16.999l1.143 5.054c1.189 5.26 2.382 10.548 2.7 15.927.318 5.38-.276 10.902-2.53 15.814 7.287-3.842 12.932-10.119 15.916-17.693.81-2.08 1.41-4.239 2.308-6.284.772-1.76 1.76-3.427 2.445-5.221a16.727 16.727 0 001.092-6.344c-.039-1.627-.316-3.245-.268-4.871.049-1.626.47-3.323 1.614-4.498 1.018-1.046 2.464-1.548 3.775-2.206a15.603 15.603 0 005.274-4.321c.825-1.056.87-1.507 1.08-2.726.203-1.185.947-2.19 1.268-3.34z"/><path fill="#EFB7B9" fill-rule="nonzero" d="M77.893 284.677c.128 1.292-.107 2.616.175 3.882.212.952.705 1.817.995 2.749.288 1.079.436 2.19.44 3.307.043.937-.03 2.076-.857 2.515-.364.193-.8.196-1.178.358-.379.162-.704.621-.487.971.182.294.596.298.935.368.339.07.712.42.515.705a.606.606 0 01-.302.193 3.468 3.468 0 00-.972.468.981.981 0 00-.4.946.584.584 0 00.835.385 2.594 2.594 0 00-.244 1.036c1.325.57 2.816-.176 4.063-.9.54-.3 1.062-.633 1.563-.996a7.791 7.791 0 003.012-6.63 15.31 15.31 0 00-.292-1.896 29.054 29.054 0 00-.765-3.222c-.356-1.116-.846-2.185-1.266-3.279-.895-2.33-1.471-4.772-2.278-7.135a.825.825 0 00-.965-.728 9.466 9.466 0 00-2.703.25c-.535.156-1.411.5-1.65 1.06-.217.504.145.956.375 1.389a11.553 11.553 0 011.451 4.204z"/><path fill="#000" fill-rule="nonzero" d="M77.314 222.761c.258.27.475.578.641.914 1.72 3.202 1.741 7.034 1.822 10.687.09 4.112.31 8.22.53 12.327l.657 12.283c.063 1.174.125 2.349.286 3.512.773.2.805 1.223.715 2.034-.553 5.013-1.93 10.173-.488 14.996.055.249.171.479.337.669a3.793 3.793 0 00-2.236-.031c-.719.155-1.41.424-2.125.591-.911.213-1.944.304-2.565 1.018a51.97 51.97 0 01-1.674-6.625c-.341-2.04-.434-4.16-1.245-6.056-.327-.765-.765-1.474-1.164-2.203-2.1-3.834-3.129-8.17-4.134-12.444a18.591 18.591 0 01-.32-6.182c.143-.942.227-1.892.251-2.845a23.472 23.472 0 00-.385-2.993 20.589 20.589 0 01.583-8.666c.752-2.61 1.412-5.356 2.986-7.548 1.574-2.193 4.872-3.4 7.528-3.438z" opacity=".1"/><path fill="#111B47" fill-rule="nonzero" d="M77.314 221.761c.258.27.475.578.641.914 1.72 3.202 1.741 7.034 1.822 10.687.09 4.112.31 8.22.53 12.327l.657 12.283c.063 1.174.125 2.349.286 3.512.773.2.805 1.223.715 2.034-.553 5.013-1.93 10.173-.488 14.996.055.249.171.479.337.669a3.793 3.793 0 00-2.236-.031c-.719.155-1.41.424-2.125.591-.911.213-1.944.304-2.565 1.018a51.97 51.97 0 01-1.674-6.625c-.341-2.04-.434-4.16-1.245-6.056-.327-.765-.765-1.474-1.164-2.203-2.1-3.834-3.129-8.17-4.134-12.444a18.591 18.591 0 01-.32-6.182c.143-.942.227-1.892.251-2.845a23.472 23.472 0 00-.385-2.993 20.589 20.589 0 01.583-8.666c.752-2.61 1.412-5.356 2.986-7.548 1.574-2.193 4.872-3.4 7.528-3.438z"/><path d="M75.697 185.342c-1.535-1.92-3.519-3.653-5.94-4.135-1.969-.392-4.008.08-6.01-.077-1.773-.14-3.473-.77-5.237-.997a16.722 16.722 0 00-4.788.18c-1.5.218-2.968.624-4.365 1.21a12.79 12.79 0 00-2.15 1.21 18.858 18.858 0 013.854-.998c1.578-.29 3.191-.35 4.787-.18 1.765.226 3.465.858 5.238.997 2.002.158 4.041-.316 6.01.076 2.421.483 4.405 2.215 5.94 4.135 1.428 1.787 2.623 4.077 2.015 6.277-.32 1.158-1.06 2.17-1.264 3.364-.21 1.227-.253 1.68-1.076 2.745a15.63 15.63 0 01-3.791 3.503c.4-.19.803-.374 1.195-.572a15.59 15.59 0 005.257-4.353c.823-1.064.867-1.518 1.076-2.745.204-1.194.945-2.205 1.265-3.364.607-2.2-.587-4.49-2.016-6.276zM66.352 204.3c.215-.22.448-.42.698-.6-1.193.572-2.448 1.077-3.36 2.022-1.14 1.185-1.56 2.894-1.608 4.531-.048 1.638.228 3.268.267 4.906a17.02 17.02 0 01-1.089 6.39c-.682 1.807-1.668 3.486-2.437 5.259-.895 2.06-1.493 4.234-2.3 6.329a34.363 34.363 0 01-13.116 16.193c-.03.069-.058.138-.089.206a34.347 34.347 0 0015.865-17.82c.808-2.096 1.406-4.27 2.3-6.33.77-1.773 1.756-3.451 2.438-5.259a17.004 17.004 0 001.089-6.39c-.039-1.638-.315-3.268-.267-4.905.048-1.638.468-3.347 1.61-4.531z" fill="#000" fill-rule="nonzero" opacity=".1"/><path fill="#2F2E41" fill-rule="nonzero" d="M338.525 385.583c-.6.682-1.628.82-2.558.91-1.202.163-2.42.185-3.628.065-1.434-.201-2.294.566-3.604-.024-.793-.357-2.013.357-2.806 0-1.086-.49-4.838-.59-5.5-1.546-.661-.955-.594-2.464.452-3.028.297-.133.603-.245.916-.337 1.751-.656 5.299-5.603 7.162-5.856a5.216 5.216 0 012.65.587c1.837.768 5.08 1.374 5.882 3.321.624 1.518 2.333 4.425 1.034 5.908zm12.945.578c.593.722 1.61.868 2.529.963 1.187.173 2.392.197 3.585.069 1.418-.213 3.146 1.014 4.441.39.784-.379 1.99-.182 2.773-.56 1.074-.518 6.124.637 6.778-.374.653-1.011.587-2.61-.447-3.206a6.862 6.862 0 00-.906-.357c-1.73-.695-7.455-7.051-9.297-7.32a4.875 4.875 0 00-2.62.623c-1.815.813-5.022 1.454-5.814 3.517-.617 1.606-2.306 4.685-1.022 6.255z"/><path fill="#2F2E41" fill-rule="nonzero" d="M357.088 273.604a27.774 27.774 0 011.478 3.332c5.015 13.16 5.435 27.543 5.643 41.612a52.704 52.704 0 00.394 6.844c.21 1.44.542 2.895.328 4.334-.185 1.245-.776 2.472-.54 3.708.105.555.373 1.069.479 1.623a5.712 5.712 0 01-.05 1.828l-.673 4.962c-.383 2.827-1.267 5.55-1.219 8.402.033 1.946.066 3.895.285 5.828.221 1.964.634 3.912.655 5.888.016 1.479-.188 2.95-.32 4.424a45.373 45.373 0 00-.126 6.26c.078 1.608.264 3.277 1.124 4.643-.963 1.37-1.917 2.597-3.459 3.268-3.134 1.363-6.73.9-10.115.413.187-.62.478-1.322.207-1.911a3.838 3.838 0 00-.581-.785 9.18 9.18 0 01-1.507-3.476c-.41-1.481-.82-3.076.021-4.498.29-.507.418-1.088.367-1.669-.7-9.33-2.793-18.982-.866-28.139.206-.977.45-1.949.566-2.94.103-1.427.12-2.86.051-4.288l-.04-1.989c-.1-2.122-.014-4.297-.443-6.397-.307-1.503-.881-3.014-.174-4.546a2.481 2.481 0 00-.105-2.207 40.423 40.423 0 01-3.567-8.169 14.293 14.293 0 00-.751-2.325 16.575 16.575 0 00-1.483-2.264c-1.678-2.413-2.682-5.214-3.667-7.978.105-.254.025-.607-.25-.57-.27.068-.503.24-.646.478-1.35 1.8-1.462 4.2-1.523 6.442a47.147 47.147 0 00.107 6.249c.116 1.089.307 2.17.406 3.26a38.544 38.544 0 01-.098 6.106l-.689 9.987a7.201 7.201 0 00.148 2.47c.443 1.4.658 2.86.639 4.327a77.323 77.323 0 001.567 17.979c.336 1.632.725 3.254 1.01 4.896.674 3.87.766 7.812.857 11.738.055 2.413.095 4.914-.864 7.133a8.203 8.203 0 00-.816 2.178 4.694 4.694 0 01-.157 1.162c-.281.718-1.125 1.024-1.885 1.188a15.39 15.39 0 01-4.345.307 2.548 2.548 0 01-.99-.218c-.544-.28-.832-.87-1.245-1.318-.89-.965-2.372-1.26-3.183-2.292-1.015-1.29-.589-3.16.015-4.682.604-1.522 1.352-3.176.832-4.728-.613-1.83-2.785-2.816-3.368-4.655 1.664-7.42-2.423-15.093-2.073-22.685.082-1.769.391-3.524.397-5.295.016-4.56-1.975-8.997-1.648-13.546.833-11.56-3.136-23.099-4.818-34.567a22.496 22.496 0 01-.354-5.193c.25-2.87 1.593-5.542 3.208-7.936 1.158-1.716 2.55-3.395 4.468-4.197 1.579-.661 3.348-.659 5.062-.645 4.276.033 8.552.065 12.827.142 2.91-.041 5.816.217 8.672.77 2.313.524 4.476 1.594 6.825 1.927z"/><path fill="#A1616A" fill-rule="nonzero" d="M288.641 220.886c-.429-2.07.382-4.285-.252-6.304-.229-.728-.79-1.484-1.564-1.463-.75.02-1.258.745-1.924 1.088-1.073.553-2.376.05-3.448-.504s-2.267-1.181-3.43-.849c-.137.718.355 1.403.89 1.908a5.183 5.183 0 011.44 1.645c.174.695.24 1.412.196 2.127.122 1.64 1.175 3.052 2.228 4.328a78.497 78.497 0 005.396 5.9c-.003-.004 2.882-3.523 2.826-4.137-.052-.58-1.023-1.123-1.375-1.59a5.41 5.41 0 01-.983-2.149zm81.949 42.251c.243.649.425 1.32.543 2.005.701 3.507 1.143 7.063 1.579 10.616.116.948.232 1.898.268 2.853a13.412 13.412 0 01-1.311 6.561c-1 2.038-2.698 3.618-4.766 4.432-.636.234-1.526.276-1.804-.36a1.395 1.395 0 01.006-.906c.251-.946.763-1.796 1.095-2.715a7.546 7.546 0 00.235-4.29c-.13-.543-.406-1.15-.939-1.258a5.01 5.01 0 01-.623 3.65c-.151.302-.412.53-.726.635a.977.977 0 01-1.023-.681 3 3 0 01-.083-1.351 47.07 47.07 0 011.006-6.769c.594-2.444 1.535-4.856 1.474-7.376-.054-2.283-.936-4.524-.689-6.794a.721.721 0 01.126-.39.698.698 0 01.276-.176 13.55 13.55 0 011.9-.65c.384-.1 1.691-.568 2.058-.358.297.17.389 1.187.537 1.53.263.61.613 1.175.862 1.792z"/><circle cx="326" cy="186.761" r="9" fill="#A1616A" fill-rule="nonzero"/><path fill="#A1616A" fill-rule="nonzero" d="M334.684 193.371c0 .593.046 1.184.14 1.769.128.591.308 1.17.54 1.728.309.909.745 1.769 1.295 2.554a3.808 3.808 0 002.341 1.532 66.355 66.355 0 01-20 5.807c1.092-.73 2-1.703 2.653-2.845a8.264 8.264 0 00.703-2.317c.59-3.36.29-6.817-.87-10.023-.114-.316-.227-.704-.01-.96a.906.906 0 01.33-.215 20.542 20.542 0 018.695-1.63c.762.006 1.524.04 2.284.095.408.03 1.311-.057 1.636.244.388.36.194 1.473.206 1.96l.057 2.301z"/><path fill="#D0CDE1" fill-rule="nonzero" d="M338.95 200.544c-2.802-3.562-7.691-4.77-11.85-2.928-4.406 2.086-6.576 7.095-10.451 10.04a18.32 18.32 0 01-2.806 1.715 7.816 7.816 0 01-1.846.725c-.725.158-1.481.136-2.202.308a5.665 5.665 0 00-3.277 2.522 17.8 17.8 0 01-1.204 1.843c-.405.477-.908.862-1.336 1.319-1.541 1.642-1.96 4-2.31 6.216a29.615 29.615 0 01-3.932 3.44 5.577 5.577 0 01-1.46.8c-1.356.436-2.851-.118-4.007-.946-1.155-.828-2.096-1.919-3.236-2.768a117.972 117.972 0 01-3.256 4.406 1.43 1.43 0 01-.728.592c-.21.7.293 1.423.67 2.05l2.018 3.364a16.764 16.764 0 002.436 3.386 5.706 5.706 0 003.694 1.782 7.462 7.462 0 002.605-.495c3.847-1.283 7.378-3.33 11.037-5.071a4.902 4.902 0 012.168-.63 1.742 1.742 0 011.713 1.222c.42 2.102.836 4.196 1.413 6.26.544 1.947 1.05 3.905 1.516 5.872.312 1.203.535 2.428.667 3.664.06.702.067 1.407.073 2.111l.078 8.511c.008.917-.518 1.488-.924 2.312a5.4 5.4 0 00-.26 4.09c.227.664.583 1.278.835 1.933.61 1.583.587 3.327.555 5.022l-.073 3.884a.824.824 0 00.085.468c.239.37.815.154 1.18-.097l1.83-1.258c2.45.335 4.925.453 7.396.354 7.028-.1 14.057.177 21.068.663 2.34.163 4.758.339 6.97-.435 1.121-.393 2.155-1.021 3.302-1.336a3.047 3.047 0 001.31-.535c.642-.589.472-1.622.21-2.45a26.379 26.379 0 00-.78-2.139c-.3-.646-.544-1.316-.73-2.002-.351-1.55-.01-3.34-.982-4.6-2.177-2.825-.636-7.17-1.55-10.606-.295-1.112-.732-2.184-1.01-3.301-.173-.701-.283-1.416-.393-2.13a25.299 25.299 0 01-.424-4.68c.026-.786.126-1.567.226-2.347l.691-5.414a16.94 16.94 0 011.78 5.118 75.464 75.464 0 002.321 7.899c.522 1.561 1.043 3.123 1.606 4.67.357.88.632 1.792.82 2.722.125.75.129 1.515.216 2.27.19 1.62.761 3.174 1.669 4.534.167.315.445.56.78.687.227.042.46.032.683-.027a27.158 27.158 0 007.028-2.412 2.804 2.804 0 001.187-.92c.598-.963-.07-2.166-.36-3.26-.312-1.172-.24-2.583-1.17-3.368-3.242-2.736-1.633-8.291-3.255-12.194-.285-.685-.617-1.352-.862-2.052-.188-.535-.324-1.086-.461-1.636a400.559 400.559 0 00-3.637-13.576c-1.34-4.671-1.196-9.536-2.882-14.095a14.808 14.808 0 00-1.235-2.75 7.482 7.482 0 00-2.236-2.283c-2.447-1.605-4.917-2.972-7.791-3.554-2.875-.582-5.987-.492-8.92-.48z"/><path fill="#2F2E41" fill-rule="nonzero" d="M317.6 188.89c-1.25-.669-.921-2.486-1.134-3.88-.437-2.871-3.7-4.574-4.466-7.376a5.057 5.057 0 002.589-.364 3.901 3.901 0 00-.522-2.691c2.684-1.084 4.856-3.21 7.58-4.187 3.428-1.229 7.244-.475 10.701.667 1.725.57 3.52 1.31 4.563 2.79 1.145 1.625 1.128 3.764 1.066 5.748-.096 3.11-.22 6.333-1.613 9.12-1.774 3.55-6.797 6.836-10.947 5.875-1.726-.4-2.234-1.477-2.961-2.968-.453-.928-.623-2.005-1.642-2.488-.997-.471-2.204.296-3.215-.246z"/><path d="M355.612 255.05c.012.245.019.492.021.74a20.37 20.37 0 01-.02-.74zm-40.086 9.281c.61 1.594.587 3.35.555 5.055l-.025 1.336a9.081 9.081 0 00-.53-2.695c-.252-.659-.608-1.276-.836-1.944a5.477 5.477 0 01.041-3.592c.228.628.557 1.216.795 1.84zM314.483 175.73l-.008.004a5.74 5.74 0 00-.462-1.631c.142-.077.282-.16.42-.244.11.613.127 1.249.05 1.87z" fill="#000" fill-rule="nonzero" opacity=".1"/><path fill="#FF6584" fill-rule="nonzero" d="M24 157.761l-2.175-1.984C14.1 148.607 9 143.952 9 138.154a8.297 8.297 0 012.37-5.959 8.11 8.11 0 015.88-2.433 8.834 8.834 0 016.75 3.204 8.834 8.834 0 016.75-3.204 8.11 8.11 0 015.878 2.433 8.297 8.297 0 012.37 5.96c0 5.797-5.099 10.451-12.823 17.622L24 157.761z"/><path stroke="#3F3D56" stroke-width="2" d="M28 152.761l-2.175-1.984C18.1 143.607 13 138.952 13 133.154a8.297 8.297 0 012.37-5.959 8.11 8.11 0 015.88-2.433 8.834 8.834 0 016.75 3.204 8.834 8.834 0 016.75-3.204 8.11 8.11 0 015.878 2.433 8.297 8.297 0 012.37 5.96c0 5.797-5.099 10.451-12.823 17.622L28 152.761z"/></g></svg>